# Blender v2.81 (sub 16) OBJ File: ''
# www.blender.org
o sphere
v 0.500000 -0.500000 -0.500000
v -0.500000 -0.500000 -0.500000
v -0.500000 0.500000 -0.500000
v 0.500000 0.500000 -0.500000
v 0.500000 -0.500000 0.500000
v 0.500000 0.500000 0.500000
v -0.500000 -0.500000 0.500000
v -0.500000 0.500000 0.500000
vt 0.648950 0.666667
vt 0.333333 0.982283
vt 0.333333 0.666667
vt 0.315616 0.666667
vt 0.000000 0.982283
vt 0.000000 0.666667
vt 0.315616 0.333333
vt 0.000000 0.648950
vt 0.000000 0.333333
vt 0.648950 0.333333
vt 0.333333 0.648950
vt 0.333333 0.333333
vt 0.333333 0.315616
vt 0.648950 0.000000
vt 0.648950 0.315616
vt 0.000000 0.315616
vt 0.315616 0.000000
vt 0.315616 0.315616
vt 0.648950 0.982283
vt 0.315616 0.982283
vt 0.315616 0.648950
vt 0.648950 0.648950
vt 0.333333 0.000000
vt 0.000000 0.000000
vn 0.0000 0.0000 -1.0000
vn 1.0000 0.0000 0.0000
vn 0.0000 -0.0000 1.0000
vn -1.0000 0.0000 0.0000
vn 0.0000 -1.0000 0.0000
vn 0.0000 1.0000 0.0000
s off
f 2/1/1 4/2/1 1/3/1
f 1/4/2 6/5/2 5/6/2
f 5/7/3 8/8/3 7/9/3
f 7/10/4 3/11/4 2/12/4
f 7/13/5 1/14/5 5/15/5
f 3/16/6 6/17/6 4/18/6
f 2/1/1 3/19/1 4/2/1
f 1/4/2 4/20/2 6/5/2
f 5/7/3 6/21/3 8/8/3
f 7/10/4 8/22/4 3/11/4
f 7/13/5 2/23/5 1/14/5
f 3/16/6 8/24/6 6/17/6
